<svg width="32" height="32" viewBox="0 0 32 32" fill="none" xmlns="http://www.w3.org/2000/svg">
<defs><clipPath id="hip-shape"><path d="M4 11C4 7.7 6.7 5 10 5H22C25.3 5 28 7.7 28 11V26.5C28 27.3 27.3 28 26.5 28H5.5C4.7 28 4 27.3 4 26.5V11Z"/></clipPath></defs>
<g clip-path="url(#hip-shape)">
<rect x="4" y="5" width="24" height="10" fill="#8C5543"/>
<rect x="4" y="15" width="24" height="13" fill="#A56953"/>
<path d="M4 19.5H28M4 24H28M4 10H28" stroke="#6D4534" stroke-width="0.8"/>
<rect x="4" y="14.2" width="24" height="1.6" fill="#6D4534"/>
<rect x="7" y="4" width="2.5" height="25" fill="#FFB02E"/>
<rect x="22.5" y="4" width="2.5" height="25" fill="#FFB02E"/>
</g>
<rect x="14" y="13" width="4" height="5" rx="1" fill="#FCD53F"/>
<circle cx="16" cy="15" r="0.8" fill="#6D4534"/>
<rect x="15.6" y="15.4" width="0.8" height="1.4" fill="#6D4534"/>
</svg>
